<svg id="download" xmlns="http://www.w3.org/2000/svg" width="15" height="15" viewBox="0 0 15 15">
  <g id="Group_37" data-name="Group 37" transform="translate(5 0)">
    <g id="Group_36" data-name="Group 36">
      <path id="Path_48" data-name="Path 48" d="M175.608,7.221a.626.626,0,0,0-.559-.346H173.8V.625a.625.625,0,0,0-1.25,0v6.25H171.3a.625.625,0,0,0-.5,1l1.875,2.5c.008.011.021.014.029.024a.611.611,0,0,0,.144.121.645.645,0,0,0,.064.043.586.586,0,0,0,.524,0,.634.634,0,0,0,.064-.043.61.61,0,0,0,.144-.121c.008-.01.021-.014.029-.024l1.875-2.5A.624.624,0,0,0,175.608,7.221Z" transform="translate(-170.674)" fill="#748774"/>
    </g>
  </g>
  <g id="Group_39" data-name="Group 39" transform="translate(0 9.375)">
    <g id="Group_38" data-name="Group 38">
      <path id="Path_49" data-name="Path 49" d="M14.375,320a.625.625,0,0,0-.625.625V322.5a1.877,1.877,0,0,1-1.875,1.875H3.125A1.877,1.877,0,0,1,1.25,322.5v-1.875a.625.625,0,0,0-1.25,0V322.5a3.129,3.129,0,0,0,3.125,3.125h8.75A3.129,3.129,0,0,0,15,322.5v-1.875A.625.625,0,0,0,14.375,320Z" transform="translate(0 -320)" fill="#748774"/>
    </g>
  </g>
</svg>
